<svg width="38" height="35" viewBox="0 0 38 35" fill="none" xmlns="http://www.w3.org/2000/svg">
<path d="M4.75 12.375C4.75 8.60376 4.75 6.71815 5.92157 5.54657C7.09315 4.375 8.97876 4.375 12.75 4.375H25.25C29.0212 4.375 30.9069 4.375 32.0784 5.54657C33.25 6.71815 33.25 8.60376 33.25 12.375V22.625C33.25 26.3962 33.25 28.2819 32.0784 29.4534C30.9069 30.625 29.0212 30.625 25.25 30.625H12.75C8.97876 30.625 7.09315 30.625 5.92157 29.4534C4.75 28.2819 4.75 26.3962 4.75 22.625V12.375Z" stroke="white" stroke-width="2"/>
<path d="M19 11.6667L19 23.3333" stroke="white" stroke-width="2" stroke-linecap="square" stroke-linejoin="round"/>
<path d="M25.3333 17.5L12.6666 17.5" stroke="white" stroke-width="2" stroke-linecap="square" stroke-linejoin="round"/>
</svg>
