<svg width="44" height="44" viewBox="0 0 44 44" fill="none" xmlns="http://www.w3.org/2000/svg">
<rect x="9.16669" y="14.6667" width="20.1667" height="23.8333" rx="2" fill="#5F5151" fill-opacity="0.8"/>
<path d="M14.6667 25.6667L25.6667 25.6667" stroke="white" stroke-width="1.2" stroke-linecap="round"/>
<path d="M14.6667 20.1667L22 20.1667" stroke="white" stroke-width="1.2" stroke-linecap="round"/>
<path d="M14.6667 31.1667L22 31.1667" stroke="white" stroke-width="1.2" stroke-linecap="round"/>
<path d="M34.8334 23.8333V32.5C34.8334 35.3284 34.8334 36.7426 33.9547 37.6213C33.076 38.5 31.6618 38.5 28.8334 38.5H15.1667C12.3383 38.5 10.924 38.5 10.0454 37.6213C9.16669 36.7426 9.16669 35.3284 9.16669 32.5V11.5C9.16669 8.67157 9.16669 7.25736 10.0454 6.37868C10.924 5.5 12.3383 5.5 15.1667 5.5H22" stroke="white" stroke-width="1.2" stroke-linecap="round"/>
<path d="M33 5.5L33 16.5" stroke="white" stroke-width="1.2" stroke-linecap="round"/>
<path d="M38.5 11L27.5 11" stroke="white" stroke-width="1.2" stroke-linecap="round"/>
</svg>
